<?xml version="1.0" standalone="no"?>
<!DOCTYPE svg PUBLIC "-//W3C//DTD SVG 20010904//EN"
 "http://www.w3.org/TR/2001/REC-SVG-20010904/DTD/svg10.dtd">
<svg version="1.0" xmlns="http://www.w3.org/2000/svg"
 width="1000.000000pt" height="1000.000000pt" viewBox="0 0 1000.000000 1000.000000"
 preserveAspectRatio="xMidYMid meet">
<metadata>
Created by potrace 1.11, written by Peter Selinger 2001-2013
</metadata>
<g transform="translate(0.000000,1000.000000) scale(0.100000,-0.100000)"
fill="#000000" stroke="none">
<path d="M4585 9989 c-945 -82 -1841 -423 -2585 -985 -220 -166 -324 -257
-535 -469 -409 -409 -692 -799 -944 -1305 -287 -576 -445 -1133 -507 -1785
-21 -221 -15 -790 10 -995 77 -618 227 -1129 491 -1665 324 -661 772 -1220
1345 -1681 297 -240 561 -408 915 -584 579 -287 1183 -455 1830 -510 185 -15
667 -12 851 5 623 60 1174 214 1729 484 721 351 1350 873 1835 1526 567 760
896 1652 971 2625 14 191 6 645 -16 850 -73 687 -279 1336 -620 1960 -354 647
-904 1244 -1545 1679 -724 491 -1556 780 -2449 850 -157 13 -630 12 -776 0z
m835 -2884 c149 -20 318 -58 450 -101 107 -35 367 -156 407 -190 l22 -19 -73
-180 c-39 -99 -75 -188 -79 -197 -5 -15 -18 -12 -104 29 -206 96 -411 160
-638 200 -147 25 -574 25 -700 0 -274 -55 -450 -155 -542 -309 -89 -147 -97
-400 -17 -563 73 -149 298 -270 779 -420 83 -26 218 -69 300 -96 83 -27 156
-49 163 -49 21 0 276 -97 377 -143 183 -84 380 -219 483 -331 148 -162 212
-362 212 -661 0 -233 -34 -394 -120 -567 -52 -103 -88 -155 -169 -241 -109
-116 -315 -238 -506 -301 -443 -144 -1047 -124 -1515 51 -194 72 -579 284
-596 327 -4 11 147 399 161 415 2 1 43 -23 92 -55 108 -71 318 -180 438 -227
283 -112 607 -162 897 -138 431 35 659 170 754 446 39 114 46 295 15 415 -70
276 -252 385 -1088 649 -424 134 -484 156 -658 241 -300 146 -472 308 -554
519 -52 135 -66 225 -66 426 1 154 4 193 24 267 88 343 284 550 658 699 146
58 328 95 598 123 85 9 486 -4 595 -19z"/>
</g>
</svg>
