<svg id="Layer_1" data-name="Layer 1" xmlns="http://www.w3.org/2000/svg" viewBox="0 0 1062 249"><defs><style>.cls-1{fill:#ce0000;}.cls-1,.cls-2,.cls-3,.cls-4,.cls-5,.cls-6{opacity:0.7;}.cls-2{fill:#ff7900;}.cls-3{fill:#ffd731;}.cls-4{fill:#10d300;}.cls-5{fill:#007bea;}.cls-6{fill:#7100d3;}.cls-7{fill:#fff;}</style></defs><title>logo</title><circle class="cls-1" cx="124.5" cy="124.5" r="124.5"/><circle class="cls-2" cx="287.1" cy="124.5" r="124.5"/><circle class="cls-3" cx="449.7" cy="124.5" r="124.5"/><circle class="cls-4" cx="612.3" cy="123.5" r="124.5"/><circle class="cls-5" cx="774.9" cy="124.5" r="124.5"/><circle class="cls-6" cx="937.5" cy="124.5" r="124.5"/><path class="cls-7" d="M126,174.35a54.49,54.49,0,0,1-11.11-1.11,44.38,44.38,0,0,1-9.25-2.88,64.24,64.24,0,0,1-6.25-3.17,43.12,43.12,0,0,1-4.07-2.71l3.62-8.8q12.67,9,26.32,9,19.58,0,19.58-14.23,0-6-3.66-9T128,135.28l-12.17-3.79q-10.37-3.45-15.47-8.35t-5.1-14.27A22,22,0,0,1,97.6,98.55a18.38,18.38,0,0,1,6.58-7.16,32.19,32.19,0,0,1,9.67-4,51,51,0,0,1,12-1.32q16,0,26.65,6.83l-3.37,8.39a46.47,46.47,0,0,0-22.38-5.68q-10,0-15,3.29a10.64,10.64,0,0,0-5,9.46q0,5.51,2.84,8.06t11.06,5.27q.33.17,3.21,1.07l6,1.89,3.33,1.07a85.66,85.66,0,0,1,9.58,3.78,32.88,32.88,0,0,1,7,4.53,16.16,16.16,0,0,1,4.69,6.46,24,24,0,0,1,1.48,8.84,25.88,25.88,0,0,1-2.43,11.48,19.71,19.71,0,0,1-6.66,7.86,30.85,30.85,0,0,1-9.46,4.28A43.66,43.66,0,0,1,126,174.35Z"/><path class="cls-7" d="M295,174.35q-19.5,0-31.14-11.93t-11.64-31.26q0-20.32,11.85-32.7t31.51-12.38a46.1,46.1,0,0,1,15.05,2.43,32.32,32.32,0,0,1,11.68,6.7l-4,8q-8.8-7.57-22.13-7.57-14.48,0-23.2,9.46t-8.72,26q0,15.47,8.47,24.6t22.87,9.13a39.46,39.46,0,0,0,24.6-8.23l3.78,8.14a36.83,36.83,0,0,1-12.79,7.12A50.83,50.83,0,0,1,295,174.35Z"/><path class="cls-7" d="M933.51,174.35a39,39,0,0,1-21.39-5.8,36.81,36.81,0,0,1-13.82-15.79A52.93,52.93,0,0,1,893.61,130q0-19.41,10.94-31.67t29.12-12.26a32.28,32.28,0,0,1,17.44,4.77,29.88,29.88,0,0,1,11.35,12.34v-15H974v84.4h-11.6v-16a29.87,29.87,0,0,1-11.27,13A32.06,32.06,0,0,1,933.51,174.35Zm1.23-9.54q13.41,0,20.69-9.46t7.28-25.67q0-15.38-7.45-24.72t-20.61-9.34q-13.82,0-21.55,9.38t-7.73,24.76q0,15.79,7.77,25.42T934.74,164.81Z"/><path class="cls-7" d="M711.84,172.63V105.25q0-7.16-.66-17H722.7l.49,15.3a28.28,28.28,0,0,1,11.6-12.92,34.37,34.37,0,0,1,17.69-4.52q10,0,16.82,5.1t9.58,14.89a33.46,33.46,0,0,1,12.75-14.81,34.56,34.56,0,0,1,18.67-5.18q14.23,0,21.59,9.09t7.36,26v51.42h-11.6V121.79q0-12.59-4.48-19.37t-13.53-6.79q-11.52,0-19.08,7.32t-9,19.74v49.93H769.84v-51.5q0-12.09-4.57-18.8t-13.94-6.7q-11,0-18.43,6.38a28.51,28.51,0,0,0-9.38,17v53.64Z"/><path class="cls-7" d="M616.41,173.35q-19.83,0-31.59-11.89t-11.76-31.71q0-20,11.27-32.33t29.95-12.34q17.36,0,27.19,11.27t9.83,29.94q0,3.62-.08,4.44H585.07q0,15.47,8.64,24.27t23.12,8.8a43.45,43.45,0,0,0,27.64-9.38l3.79,8.39a46.22,46.22,0,0,1-14.6,7.78A54.68,54.68,0,0,1,616.41,173.35ZM585.48,122.6H641q-.82-13.16-7.94-20.65t-18.55-7.49q-11.93,0-19.78,7.57T585.48,122.6Z"/><path class="cls-7" d="M413.34,172.63V49.15h11.6V103a31.92,31.92,0,0,1,12.5-12.3A37.14,37.14,0,0,1,456,86.08q13.57,0,22.09,8.51t8.51,24.56v53.47H475v-52.4q0-12.59-4.69-18.59t-15.38-6a31.22,31.22,0,0,0-20.9,7.82q-9.13,7.82-9.13,17.77v51.42Z"/></svg>